<svg xmlns="http://www.w3.org/2000/svg" width="154" height="54" viewBox="0 0 154 54">
    <g fill="none">
        <path fill="#FAFAFC" d="M4.672 1l145.48.257c2.032 0 3.848-.3 3.848 4.04L153.822 53H1V5.119C1 2.979 1.208 1 4.672 1z"/>
        <path fill="#000" d="M151.117 0H2.884C1.294 0 0 1.296 0 2.889v50.46c0 .36.291.651.651.651H153.35c.36 0 .651-.292.651-.652V2.888C154 1.297 152.706 0 151.117 0zM2.884 1.305h148.233c.872 0 1.58.71 1.58 1.584v34.998H46.75c-3.884 7.034-11.366 11.81-19.953 11.81-8.588 0-16.069-4.772-19.95-11.81H1.304V2.889c0-.873.71-1.584 1.581-1.584z"/>
        <g>
            <path fill="#FFF" d="M37.873 20.219c.006 9.595-7.768 17.376-17.362 17.383-9.594.006-17.376-7.768-17.382-17.362v-.021C3.123 10.624 10.896 2.843 20.49 2.836c9.596-.005 17.378 7.768 17.383 17.362v.021z" transform="translate(6 5)"/>
            <path fill="#000" d="M34.623 6.07c3.852 3.852 5.778 8.569 5.778 14.149 0 5.58-1.893 10.248-5.679 14.001-4.018 3.953-8.766 5.929-14.247 5.929-5.413 0-10.08-1.96-13.997-5.88C2.558 30.351.6 25.668.6 20.22c0-5.447 1.959-10.164 5.878-14.15C10.297 2.216 14.963.29 20.475.29c5.58 0 10.296 1.927 14.148 5.78zM9.071 8.66c-3.257 3.29-4.885 7.144-4.885 11.564s1.612 8.24 4.835 11.463c3.224 3.223 7.061 4.835 11.514 4.835 4.452 0 8.323-1.628 11.613-4.884 3.123-3.024 4.685-6.828 4.685-11.414 0-4.551-1.588-8.414-4.762-11.588-3.173-3.173-7.018-4.76-11.536-4.76S12.193 5.471 9.07 8.661zm8.57 9.62c-.497-1.085-1.24-1.628-2.235-1.628-1.756 0-2.634 1.183-2.634 3.547 0 2.365.878 3.546 2.634 3.546 1.16 0 1.988-.575 2.485-1.729l2.435 1.297c-1.161 2.062-2.902 3.093-5.223 3.093-1.79 0-3.225-.549-4.302-1.646-1.078-1.098-1.617-2.612-1.617-4.541 0-1.896.556-3.4 1.667-4.515 1.11-1.115 2.495-1.672 4.153-1.672 2.454 0 4.21.967 5.274 2.9L17.64 18.28zm11.455 0c-.498-1.085-1.229-1.628-2.19-1.628-1.792 0-2.689 1.183-2.689 3.547 0 2.365.897 3.546 2.688 3.546 1.163 0 1.976-.575 2.44-1.729l2.489 1.297c-1.159 2.062-2.897 3.093-5.214 3.093-1.788 0-3.219-.549-4.296-1.646-1.074-1.098-1.614-2.612-1.614-4.541 0-1.896.547-3.4 1.64-4.515 1.092-1.115 2.482-1.672 4.17-1.672 2.45 0 4.205.967 5.263 2.9l-2.687 1.348z" transform="translate(6 5)"/>
        </g>
        <g transform="translate(51 4)">
            <circle cx="15.431" cy="15.8" r="13.958" fill="#FFF"/>
            <g fill="#000" transform="translate(11.333 5.167)">
                <path d="M8.137 6.594c0-.538-.437-.974-.974-.974H1c-.538 0-.974.436-.974.974v6.165h1.72v7.3h4.671v-7.3h1.72V6.594z"/>
                <circle cx="4.081" cy="2.7" r="2.108"/>
            </g>
            <path fill="#000" d="M15.395.42C11.22.42 7.686 1.877 4.794 4.79 1.826 7.806.342 11.374.342 15.493s1.484 7.662 4.452 10.626c2.968 2.963 6.502 4.446 10.6 4.446 4.15 0 7.748-1.494 10.792-4.484 2.867-2.838 4.3-6.368 4.3-10.588 0-4.22-1.458-7.787-4.376-10.701C23.193 1.877 19.622.42 15.395.42zm.039 2.712c3.42 0 6.324 1.207 8.713 3.618 2.416 2.386 3.623 5.3 3.623 8.742 0 3.466-1.182 6.343-3.547 8.629-2.49 2.462-5.42 3.692-8.79 3.692-3.37 0-6.276-1.218-8.715-3.655-2.44-2.436-3.66-5.325-3.66-8.666 0-3.342 1.233-6.255 3.697-8.742 2.366-2.411 5.258-3.618 8.679-3.618z"/>
        </g>
        <g fill="#FFF">
            <path d="M4.66.084c.414 0 .794.035 1.136.105.342.07.636.184.881.344.244.159.433.371.568.635.134.265.202.59.202.98 0 .42-.1.77-.3 1.049-.2.28-.496.509-.886.688.539.148.94.407 1.207.777.265.37.398.815.398 1.336 0 .42-.086.784-.257 1.092-.17.306-.402.557-.692.752-.288.195-.62.339-.99.432-.371.094-.752.14-1.144.14H.551V.084h4.108zm-.246 3.37c.342 0 .623-.079.843-.234.22-.155.33-.407.33-.756 0-.194-.036-.354-.11-.477-.073-.124-.17-.22-.293-.292-.122-.07-.263-.118-.421-.145-.16-.027-.325-.04-.496-.04H2.472v1.943h1.942zm.112 3.534c.188 0 .367-.017.538-.052.171-.036.322-.094.453-.175.13-.082.234-.193.312-.333.077-.14.116-.319.116-.536 0-.427-.126-.732-.379-.915-.253-.182-.587-.274-1.002-.274H2.472v2.285h2.054zM8.204.084L10.352.084 12.393 3.374 14.422.084 16.559.084 13.323 5.217 13.323 8.414 11.402 8.414 11.402 5.171z" transform="translate(57 42)"/>
        </g>
        <g fill="#FFF">
            <path d="M2.505 7.355c.106.194.245.351.42.472s.38.21.616.269c.235.058.477.088.73.088.17 0 .353-.014.548-.042.194-.027.377-.08.548-.157.17-.077.311-.185.426-.321.113-.136.17-.31.17-.52 0-.225-.075-.407-.226-.547-.15-.14-.347-.257-.59-.35-.244-.093-.52-.175-.829-.246-.309-.07-.622-.148-.938-.233-.326-.078-.643-.174-.952-.286-.307-.112-.585-.259-.828-.438-.243-.178-.441-.402-.59-.67C.859 4.105.783 3.78.783 3.4c0-.429.096-.8.287-1.115.191-.315.441-.577.75-.788.308-.21.658-.365 1.049-.467.39-.101.78-.151 1.17-.151.456 0 .892.049 1.311.146.418.097.79.256 1.115.473.326.218.584.497.775.835.19.34.286.75.286 1.231h-1.86c-.016-.249-.07-.455-.163-.617-.093-.164-.217-.292-.371-.386-.153-.093-.33-.16-.528-.198-.198-.039-.415-.058-.65-.058-.153 0-.307.016-.46.046-.155.032-.294.086-.42.164-.126.078-.228.174-.31.291-.08.118-.121.265-.121.443 0 .164.032.297.097.397.065.102.193.196.384.281.192.085.455.17.792.256s.78.196 1.323.327c.162.031.388.088.676.17.288.082.576.211.86.39.284.18.53.42.737.719.207.299.31.682.31 1.15 0 .38-.077.734-.232 1.061-.154.328-.384.61-.69.846-.305.238-.683.423-1.135.555-.45.133-.973.199-1.568.199-.48 0-.945-.058-1.397-.17-.452-.114-.85-.29-1.195-.532-.346-.242-.621-.55-.825-.924C.577 7.6.478 7.157.487 6.644h1.86c0 .279.052.517.158.71zM13.302 1.084l3.26 8.33h-1.99l-.66-1.855h-3.258l-.685 1.855H8.041l3.296-8.33h1.965zm.11 5.107l-1.098-3.054h-.026l-1.134 3.054h2.258z" transform="translate(124 41)"/>
        </g>
        <g fill="#FFF">
            <path d="M2.354 1.084L5.933 6.672 5.953 6.672 5.953 1.084 7.721 1.084 7.721 9.414 5.837 9.414 2.271 3.837 2.247 3.837 2.247 9.414.479 9.414.479 1.084zM14.874 3.303c-.112-.176-.252-.33-.42-.461-.169-.132-.358-.236-.57-.309-.213-.075-.435-.111-.666-.111-.424 0-.785.08-1.08.24-.297.158-.537.371-.72.64-.185.269-.32.574-.403.916-.085.341-.126.695-.126 1.06 0 .35.041.691.126 1.02.084.332.218.63.403.893.183.265.423.476.72.636.295.16.656.24 1.08.24.575 0 1.026-.171 1.35-.514.324-.342.522-.794.594-1.354h1.824c-.048.521-.172.992-.372 1.412-.2.421-.464.779-.792 1.076-.328.296-.712.522-1.152.678-.44.156-.925.235-1.452.235-.657 0-1.247-.111-1.772-.334-.523-.22-.966-.527-1.327-.915-.36-.39-.637-.847-.83-1.372-.192-.526-.288-1.092-.288-1.7 0-.622.096-1.2.288-1.733.193-.533.47-.998.83-1.395s.804-.708 1.327-.934c.525-.226 1.115-.338 1.772-.338.472 0 .918.066 1.337.199.42.132.798.325 1.13.579.332.252.606.566.821.94.216.373.352.801.409 1.284H15.09c-.032-.21-.104-.403-.216-.578z" transform="translate(91 41)"/>
        </g>
        <g>
            <path fill="#FFF" d="M29.261 15.907c.006 7.53-6.094 13.639-13.624 13.644C8.107 29.556 2 23.457 1.993 15.926v-.019C1.988 8.378 8.088 2.27 15.617 2.264c7.53-.006 13.638 6.094 13.644 13.623v.02z" transform="translate(118 3)"/>
            <g fill="#000">
                <path d="M15.491.755c-4.137 0-7.64 1.444-10.505 4.33C2.046 8.073.574 11.61.574 15.691c0 4.083 1.471 7.592 4.412 10.53 2.94 2.938 6.443 4.407 10.505 4.407 4.113 0 7.677-1.482 10.693-4.444 2.841-2.813 4.263-6.311 4.263-10.493s-1.445-7.717-4.338-10.606C23.218 2.2 19.679.755 15.491.755zm.038 2.689c3.39 0 6.267 1.194 8.636 3.585 2.393 2.364 3.589 5.25 3.589 8.662 0 3.435-1.171 6.285-3.515 8.552-2.466 2.439-5.371 3.658-8.71 3.658-3.34 0-6.219-1.207-8.636-3.622-2.418-2.415-3.627-5.277-3.627-8.588 0-3.311 1.22-6.199 3.664-8.662 2.343-2.391 5.209-3.585 8.599-3.585z" transform="translate(118 3) translate(.038 .216)"/>
                <path d="M8.871 13.584c.595-3.76 3.24-5.768 6.557-5.768 4.767 0 7.673 3.46 7.673 8.074 0 4.502-3.092 7.999-7.748 7.999-3.204 0-6.073-1.971-6.594-5.841h3.762c.113 2.009 1.417 2.716 3.28 2.716 2.122 0 3.5-1.972 3.5-4.985 0-3.164-1.19-4.837-3.427-4.837-1.639 0-3.054.595-3.353 2.642l1.094-.008-2.961 2.963-2.961-2.963 1.178.008z" transform="translate(118 3) translate(.038 .216)"/>
            </g>
        </g>
        <g>
            <path fill="#FFF" d="M29.873 15.626c.007 7.718-6.246 13.976-13.962 13.983-7.717.005-13.978-6.246-13.983-13.963v-.02C1.922 7.91 8.174 1.65 15.89 1.643c7.717-.005 13.978 6.247 13.983 13.963v.02z" transform="translate(84 4)"/>
            <path fill="#000" d="M15.881.606c4.211 0 7.77 1.452 10.677 4.355 2.91 2.904 4.362 6.46 4.362 10.665 0 4.205-1.429 7.723-4.285 10.552-3.034 2.98-6.618 4.468-10.754 4.468-4.085 0-7.607-1.477-10.564-4.43C2.36 23.262.88 19.731.88 15.625c0-4.105 1.48-7.66 4.437-10.665C8.2 2.058 11.72.606 15.881.606zM4.26 11.59c-.449 1.267-.673 2.612-.673 4.035 0 3.33 1.216 6.208 3.647 8.637 2.431 2.427 5.326 3.642 8.685 3.642 3.359 0 6.279-1.226 8.76-3.68.83-.803 1.515-1.678 2.052-2.627l-5.662-2.522c-.383 1.906-2.082 3.192-4.134 3.343v2.316H15.21V22.42c-1.684-.02-3.314-.709-4.56-1.799l2.07-2.085c.997.937 1.992 1.358 3.352 1.358.883 0 1.86-.344 1.86-1.493 0-.406-.159-.69-.407-.902l-1.431-.638-1.784-.794-2.378-1.059-7.672-3.416zM15.919 3.31c-3.41 0-6.29 1.2-8.647 3.605-.641.647-1.2 1.323-1.673 2.029L11.34 11.5c.519-1.593 2.032-2.56 3.869-2.667V6.517h1.725v2.316c1.188.058 2.49.384 3.774 1.378l-1.973 2.028c-.73-.516-1.648-.88-2.568-.88-.747 0-1.8.229-1.8 1.166 0 .144.048.27.134.382l1.921.855 1.3.58 2.412 1.073 7.697 3.427c.254-1.009.38-2.08.38-3.216 0-3.431-1.202-6.333-3.607-8.711-2.382-2.404-5.277-3.605-8.686-3.605z" transform="translate(84 4)"/>
        </g>
    </g>
</svg>
