<svg xmlns="http://www.w3.org/2000/svg" xmlns:xlink="http://www.w3.org/1999/xlink" viewBox="0 0 76 76.94">
  <defs>
    <style>
      .cls-1 {
        fill: none;
      }

      .cls-2 {
        fill: #8f90a6;
      }

      .cls-3 {
        clip-path: url(#clip-path);
      }

      .cls-4 {
        fill: #fff;
      }
    </style>
    <clipPath id="clip-path">
      <path class="cls-1" d="M12.34,0H63.56A12.44,12.44,0,0,1,76,12.44V63.56A12.44,12.44,0,0,1,63.56,76H12.44A12.44,12.44,0,0,1,0,63.56V12.34A12.34,12.34,0,0,1,12.34,0Z"/>
    </clipPath>
  </defs>
  <g id="Layer_2" data-name="Layer 2">
    <g id="Layer_1-2" data-name="Layer 1">
      <g id="Facebook">
        <path class="cls-2" d="M12.34,0H63.56A12.44,12.44,0,0,1,76,12.44V63.56A12.44,12.44,0,0,1,63.56,76H12.44A12.44,12.44,0,0,1,0,63.56V12.34A12.34,12.34,0,0,1,12.34,0Z"/>
        <g class="cls-3">
          <g>
            <path class="cls-2" d="M76,38A38,38,0,1,0,32.06,75.54V49H22.41V38h9.65V29.63c0-9.53,5.68-14.79,14.36-14.79a57.84,57.84,0,0,1,8.5.75v9.35H50.13c-4.72,0-6.19,2.93-6.19,5.93V38H54.48L52.79,49H43.94V75.54A38,38,0,0,0,76,38Z"/>
            <path class="cls-4" d="M43.94,76.94V49.77h8.85l1.69-11.24H43.94V31.24c0-3.07,1.47-6.07,6.19-6.07h4.79V15.6a57.11,57.11,0,0,0-8.5-.76c-8.68,0-14.36,5.39-14.36,15.13v8.56H22.41V49.77h9.65V76.94Z"/>
          </g>
        </g>
      </g>
    </g>
  </g>
</svg>
