<svg xmlns="http://www.w3.org/2000/svg" viewBox="0 0 76 76">
  <defs>
    <style>
      .cls-1 {
        fill: #8f90a6;
      }

      .cls-2 {
        fill: #fff;
      }
    </style>
  </defs>
  <g id="Layer_2" data-name="Layer 2">
    <g id="Layer_1-2" data-name="Layer 1">
      <g id="Instagram">
        <path class="cls-1" d="M12.34,0H63.56A12.44,12.44,0,0,1,76,12.44V63.56A12.44,12.44,0,0,1,63.56,76H12.44A12.44,12.44,0,0,1,0,63.56V12.34A12.34,12.34,0,0,1,12.34,0Z"/>
        <g>
          <path class="cls-2" d="M53.23,19.5a3.38,3.38,0,1,0,3.38,3.38A3.37,3.37,0,0,0,53.23,19.5Z"/>
          <path class="cls-2" d="M38.24,23.83A14.17,14.17,0,1,0,52.41,38,14.18,14.18,0,0,0,38.24,23.83Zm0,23.25A9.08,9.08,0,1,1,47.31,38,9.09,9.09,0,0,1,38.24,47.08Z"/>
          <path class="cls-2" d="M49.49,66.77h-23A17.3,17.3,0,0,1,9.23,49.49v-23A17.3,17.3,0,0,1,26.51,9.23h23A17.3,17.3,0,0,1,66.77,26.51v23A17.3,17.3,0,0,1,49.49,66.77Zm-23-52.13A11.89,11.89,0,0,0,14.64,26.51v23A11.89,11.89,0,0,0,26.51,61.36h23A11.89,11.89,0,0,0,61.36,49.49v-23A11.89,11.89,0,0,0,49.49,14.64Z"/>
        </g>
      </g>
    </g>
  </g>
</svg>
