<svg xmlns="http://www.w3.org/2000/svg" viewBox="0 0 76 76">
  <defs>
    <style>
      .cls-1 {
        fill: #8f90a6;
      }

      .cls-2 {
        fill: #fff;
      }
    </style>
  </defs>
  <g id="Layer_2" data-name="Layer 2">
    <g id="Layer_1-2" data-name="Layer 1">
      <g id="Youtube">
        <path class="cls-1" d="M12.34,0H63.56A12.44,12.44,0,0,1,76,12.44V63.56A12.44,12.44,0,0,1,63.56,76H12.44A12.44,12.44,0,0,1,0,63.56V12.34A12.34,12.34,0,0,1,12.34,0Z"/>
        <path class="cls-2" d="M64.11,31.18A11.46,11.46,0,0,0,52.65,19.73H23.35A11.46,11.46,0,0,0,11.89,31.18V44.82A11.46,11.46,0,0,0,23.35,56.27h29.3A11.46,11.46,0,0,0,64.11,44.82ZM46.88,39l-13.14,6.5c-.52.28-2.27-.09-2.27-.68V31.5c0-.59,1.77-1,2.28-.67l12.58,6.84C46.86,38,47.41,38.73,46.88,39Z"/>
      </g>
    </g>
  </g>
</svg>
