<svg xmlns="http://www.w3.org/2000/svg" viewBox="0 0 76 76">
  <defs>
    <style>
      .cls-1 {
        fill: #8f90a6;
      }

      .cls-2 {
        fill: #fff;
      }
    </style>
  </defs>
  <g id="Layer_2" data-name="Layer 2">
    <g id="Layer_1-2" data-name="Layer 1">
      <g id="LinkedIn">
        <path class="cls-1" d="M12.34,0H63.56A12.44,12.44,0,0,1,76,12.44V63.56A12.44,12.44,0,0,1,63.56,76H12.44A12.44,12.44,0,0,1,0,63.56V12.34A12.34,12.34,0,0,1,12.34,0Z"/>
        <path class="cls-2" d="M16.88,30.68h9.06V59.79H16.88Zm4.53-14.47a5.25,5.25,0,1,1-5.25,5.24,5.25,5.25,0,0,1,5.25-5.24"/>
        <path class="cls-2" d="M31.62,30.68H40.3v4h.12A9.51,9.51,0,0,1,49,30c9.16,0,10.85,6,10.85,13.86v16h-9V45.64c0-3.38-.07-7.72-4.7-7.72s-5.43,3.67-5.43,7.47v14.4h-9Z"/>
      </g>
    </g>
  </g>
</svg>
